# xmcd
#
# Track frame offsets:
#	150
#	17280
#	30375
#	40185
#	50783
#	62888
#	77596
#	89154
#	101477
#	113312
#	121922
#	134110
#	151585
#	165468
#	175428
#	188441
#
# Disc length: 2688 seconds
#
# Revision: 1
# Processed by: cddbd v1.5.2PL0 Copyright (c) Steve Scherf et al.
# Submitted via: audiograbber 1.83.01
#
DISCID=c10a7e10
DTITLE=Lynn Anderson - The Best Of Memories and Desires
DYEAR=1982
DGENRE=Country
TTITLE0=Midnight Train To Georgia
TTITLE1=Rose Garden
TTITLE2=What A Man, My Man Is
TTITLE3=Silver Threads And Golden Needles
TTITLE4=How Can I Unlove You
TTITLE5=We've Only Just Begun
TTITLE6=You're My Man
TTITLE7=It Must Be Love
TTITLE8=You Don't Have To Say You Love Me
TTITLE9=Ride, Ride, Ride
TTITLE10=Listen To A Country Song
TTITLE11=Close To You
TTITLE12=Cry
TTITLE13=Fool Me
TTITLE14=Top Of The World
TTITLE15=Keep Me In Mind
EXTD=
EXTT0=
EXTT1=
EXTT2=
EXTT3=
EXTT4=
EXTT5=
EXTT6=
EXTT7=
EXTT8=
EXTT9=
EXTT10=
EXTT11=
EXTT12=
EXTT13=
EXTT14=
EXTT15=
PLAYORDER=
